HIERARCHY
ROOT RootJoint
{
    OFFSET   0.000000   0.000000   0.000000
    CHANNELS 6 Xposition Yposition Zposition Xrotation Yrotation Zrotation
    JOINT pelvis_lowerback
    {
        OFFSET   0.000000   0.093605   0.000000
        CHANNELS 3 Xrotation Yrotation Zrotation
        JOINT lowerback_torso
        {
            OFFSET   0.000000   0.100000   0.000000
            CHANNELS 3 Xrotation Yrotation Zrotation
            JOINT torso_head
            {
                OFFSET   0.000000   0.282350   0.000000
                CHANNELS 3 Xrotation Yrotation Zrotation
                End Site
                {
                    OFFSET   0.000000   0.192650   0.000000
                }
            }
            JOINT rTorso_Clavicle
            {
                OFFSET  -0.001000   0.157500   0.000000
                CHANNELS 3 Xrotation Yrotation Zrotation
                JOINT rShoulder
                {
                    OFFSET  -0.117647   0.000000   0.000000
                    CHANNELS 3 Xrotation Yrotation Zrotation
                    JOINT rElbow
                    {
                        OFFSET  -0.245000   0.000000   0.000000
                        CHANNELS 3 Xrotation Yrotation Zrotation
                        JOINT rWrist
                        {
                            OFFSET  -0.240000   0.000000   0.000000
                            CHANNELS 3 Xrotation Yrotation Zrotation
                            End Site
                            {
                                OFFSET  -0.116353  -0.002500   0.000000
                            }
                        }
                    }
                }
            }
            JOINT lTorso_Clavicle
            {
                OFFSET   0.001000   0.157500   0.000000
                CHANNELS 3 Xrotation Yrotation Zrotation
                JOINT lShoulder
                {
                    OFFSET   0.117647   0.000000   0.000000
                    CHANNELS 3 Xrotation Yrotation Zrotation
                    JOINT lElbow
                    {
                        OFFSET   0.245000   0.000000   0.000000
                        CHANNELS 3 Xrotation Yrotation Zrotation
                        JOINT lWrist
                        {
                            OFFSET   0.240000   0.000000   0.000000
                            CHANNELS 3 Xrotation Yrotation Zrotation
                            End Site
                            {
                                OFFSET   0.116353  -0.002500   0.000000
                            }
                        }
                    }
                }
            }
        }
    }
    JOINT rHip
    {
        OFFSET  -0.100000  -0.051395   0.000000
        CHANNELS 3 Xrotation Yrotation Zrotation
        JOINT rKnee
        {
            OFFSET   0.000000  -0.410000   0.000000
            CHANNELS 3 Xrotation Yrotation Zrotation
            JOINT rAnkle
            {
                OFFSET   0.000000  -0.390000   0.000000
                CHANNELS 3 Xrotation Yrotation Zrotation
                JOINT rToeJoint
                {
                    OFFSET   0.000000  -0.050000   0.130000
                    CHANNELS 3 Xrotation Yrotation Zrotation
                    End Site
                    {
                        OFFSET  -0.010000   0.002000   0.060000
                    }
                }
            }
        }
    }
    JOINT lHip
    {
        OFFSET   0.100000  -0.051395   0.000000
        CHANNELS 3 Xrotation Yrotation Zrotation
        JOINT lKnee
        {
            OFFSET   0.000000  -0.410000   0.000000
            CHANNELS 3 Xrotation Yrotation Zrotation
            JOINT lAnkle
            {
                OFFSET   0.000000  -0.390000   0.000000
                CHANNELS 3 Xrotation Yrotation Zrotation
                JOINT lToeJoint
                {
                    OFFSET   0.000000  -0.050000   0.130000
                    CHANNELS 3 Xrotation Yrotation Zrotation
                    End Site
                    {
                        OFFSET   0.010000   0.002000   0.060000
                    }
                }
            }
        }
    }
}
MOTION
Frames: 11
Frame Time:   0.008333
 -2.368619   0.942455   3.751647  18.252245  34.964190 -19.425675   5.677920  10.529273  -6.103784   0.467815   4.239676  -4.702100  -3.002432   8.037408  -1.231000   0.931240   8.297729   2.099612  -0.762943  22.322639  38.630783   0.014198  58.560661  -0.004622   3.410748   3.670630  -9.982275   4.526958  -6.434567   3.679580   8.861545 -13.825105 -38.449395   0.016896 -54.674190   0.023984   2.999627  -4.856901  10.430393  -8.698463 -31.035127   5.336973  29.661814   0.016405  -0.004790  22.280599 -22.426101  20.268640 -28.167883   0.024446   0.040653 -30.884604  12.388553  10.537454  11.035997  -0.004510  -0.010502  10.439103  14.210082  13.291545 -13.503694   0.012533  -0.011364
 -2.365115   0.943729   3.754495  18.166619  34.710968 -20.058102   5.666090  10.658518  -6.057076   0.331453   4.323372  -4.767389  -3.068275   7.824122  -0.918807   0.902253   7.985042   2.454706  -0.893346  21.714279  38.397452   0.022753  57.626398  -0.012243   3.508285   4.189752 -10.004677   4.404063  -5.822735   3.539748   8.531878 -12.909746 -37.600256   0.030846 -53.559276   0.039244   2.972179  -5.286744  10.307702  -8.998710 -30.715427   4.755593  30.307041   0.018804  -0.005904  21.886014 -21.625274  20.316426 -25.757735   0.029045   0.043080 -31.266782  12.022405  11.368574  12.139250  -0.004662  -0.010069   9.709075  14.176347  13.505444 -13.719996   0.010637  -0.008495
 -2.361489   0.944893   3.757177  18.061270  34.452104 -20.699996   5.640351  10.768463  -5.957968   0.182523   4.387443  -4.767570  -3.135419   7.621717  -0.608793   0.892940   7.603803   2.745670  -0.981004  21.059889  38.115371   0.030487  56.699347  -0.019362   3.562950   4.451147 -10.147368   4.280913  -5.171808   3.475453   8.229714 -11.961244 -36.718731   0.042392 -52.446418   0.050138   2.883219  -5.372607  10.400907  -9.312451 -30.365650   4.006453  30.908559   0.021172  -0.007119  21.512114 -20.878607  20.363111 -23.575559   0.035310   0.041907 -31.688080  11.669426  12.215804  13.331694  -0.004677  -0.009535   8.957173  14.148382  13.724729 -13.972256   0.009191  -0.006164
 -2.357834   0.946014   3.759726  17.956018  34.186885 -21.369494   5.588406  10.860442  -5.810909   0.024583   4.435147  -4.713557  -3.199092   7.431982  -0.314194   0.902643   7.187232   2.986037  -1.040384  20.401141  37.821382   0.036202  55.812720  -0.024928   3.591526   4.559083 -10.358482   4.168533  -4.510023   3.482803   7.952421 -11.027055 -35.845849   0.050257 -51.384975   0.056255   2.769045  -5.289492  10.612598  -9.635415 -30.010433   3.146429  31.453176   0.023015  -0.008283  21.163531 -20.183976  20.410313 -21.573930   0.041532   0.038112 -32.109426  11.330407  13.077022  14.492111  -0.004529  -0.008765   8.245673  14.127640  13.936066 -14.253029   0.008064  -0.004310
 -2.354223   0.947109   3.762166  17.856583  33.922947 -22.073526   5.514163  10.935658  -5.621346  -0.140589   4.468003  -4.614439  -3.259054   7.254117  -0.035531   0.925738   6.757802   3.190498  -1.081842  19.756077  37.529569   0.039846  54.973394  -0.028797   3.605219   4.583774 -10.603524   4.063326  -3.858567   3.540669   7.691228 -10.126611 -34.996112   0.054859 -50.383328   0.058729   2.645167  -5.130405  10.888746  -9.960102 -29.655793   2.217174  31.945625   0.024256  -0.009258  20.838389 -19.537468  20.457479 -19.738931   0.046862   0.032836 -32.524914  11.004874  13.954160  15.592715  -0.004255  -0.007732   7.585820  14.115288  14.137313 -14.551963   0.007162  -0.002900
 -2.350705   0.948177   3.764520  17.763198  33.661100 -22.808054   5.422411  10.998011  -5.400220  -0.310696   4.489207  -4.480299  -3.315514   7.087486   0.227781   0.957654   6.330259   3.369654  -1.112229  19.134936  37.247850   0.041678  54.183287  -0.031100   3.610200   4.563347 -10.863223   3.962383  -3.229840   3.633342   7.440689  -9.269606 -34.176886   0.056816 -49.443044   0.058614   2.518505  -4.939371  11.204086 -10.283362 -29.303596   1.244236  32.392591   0.024930  -0.010008  20.535041 -18.935533  20.504056 -18.058083   0.050910   0.026863 -32.928793  10.682947  14.846674  16.625319  -0.003941  -0.006628   6.973035  14.103360  14.332481 -14.852289   0.006413  -0.001838
 -2.347316   0.949208   3.766801  17.674809  33.398776 -23.564904   5.317393  11.051342  -5.159209  -0.483641   4.502192  -4.321392  -3.368741   6.931500   0.476083   0.994950   5.914176   3.530817  -1.136045  18.543617  36.980713   0.042052  53.442273  -0.032081   3.610251   4.520176 -11.125915   3.864214  -2.630490   3.749518   7.198027  -8.460461 -33.392148   0.056719 -48.563065   0.056735   2.392618  -4.739146  11.544519 -10.604797 -28.954981   0.244489  32.799312   0.025094  -0.010535  20.252005 -18.374952  20.549619 -16.519397   0.053545   0.020726 -33.315966  10.355670  15.751675  17.588230  -0.003657  -0.005624   6.399795  14.084306  14.524516 -15.139260   0.005769  -0.001026
 -2.343713   0.949252   3.768904  17.645421  33.361317 -24.347726   5.222700  10.965739  -4.752436  -0.544517   4.472324  -4.220236  -3.470957   6.789516   0.630132   0.890151   5.483333   3.731899  -1.220209  17.792261  36.374858   0.050535  52.403513  -0.038694   3.610430   4.786260 -11.066145   3.461684  -1.964962   3.687037   6.866409  -7.214862 -32.330731   0.072729 -47.176289   0.070551   2.267571  -5.380110  11.434094 -10.791390 -28.562101  -0.839869  33.244742   0.026538  -0.010588  19.915626 -17.742791  20.498855 -15.175326   0.057727   0.018351 -33.858307  10.286618  16.505087  18.422559  -0.001849  -0.001465   4.472250  13.503793  14.625467 -13.431435   0.010094   0.002743
 -2.340042   0.948352   3.770937  17.669747  33.409070 -25.171836   5.140630  10.886494  -4.305169  -0.602258   4.448341  -4.082745  -3.561725   6.654571   0.775276   0.774722   4.999551   3.822093  -1.297204  17.010757  35.708413   0.056973  51.388729  -0.042761   3.569604   4.833296 -11.179603   3.086297  -1.240881   3.733633   6.554843  -5.948014 -31.243144   0.085655 -45.816464   0.080508   2.085490  -5.726180  11.534601 -10.874084 -28.149004  -1.931054  33.688237   0.028069  -0.010443  19.603184 -17.153736  20.452248 -13.945728   0.061555   0.015766 -34.501637  10.204167  17.172518  19.135585   0.000066   0.001926   2.663638  12.951947  14.700313 -11.929800   0.014163   0.007011
 -2.336340   0.946579   3.772931  17.719907  33.483825 -26.019376   5.063071  10.841679  -3.841252  -0.660745   4.450630  -3.910063  -3.642968   6.528929   0.915079   0.661610   4.497804   3.843476  -1.369998  16.239163  35.034019   0.060439  50.424338  -0.044200   3.507933   4.759582 -11.410746   2.744338  -0.489695   3.863254   6.261487  -4.703707 -30.167436   0.094218 -44.519189   0.086182   1.877225  -5.880167  11.763424 -10.867601 -27.734634  -3.009275  34.121644   0.029311  -0.010323  19.313886 -16.605031  20.410135 -12.817417   0.064220   0.012624 -35.209218  10.097279  17.783078  19.756730   0.001782   0.004308   0.978267  12.433681  14.753127 -10.557785   0.017707   0.010598
 -2.332634   0.943987   3.774886  17.781022  33.560473 -26.878061   4.988184  10.834886  -3.371687  -0.719808   4.484614  -3.710776  -3.717261   6.412233   1.048981   0.552397   4.003451   3.828360  -1.443017  15.497906  34.376988   0.061220  49.516206  -0.043603   3.437216   4.631384 -11.703164   2.431884   0.267321   4.046353   5.981159  -3.499581 -29.120557   0.098702 -43.290015   0.088291   1.656154  -5.916624  12.069781 -10.789609 -27.329077  -4.064769  34.542478   0.030142  -0.010283  19.046085 -16.093672  20.372275 -11.782468   0.065465   0.009108 -35.956135   9.968416  18.346606  20.302361   0.003211   0.005812  -0.592328  11.947901  14.788103  -9.301284   0.020579   0.013213
